/* XPM */
static char *_dcb9e98f42d4b4cf4e8b64dd81f9f61[] = {
/* columns rows colors chars-per-pixel */
"64 64 104 2 ",
"   c #DF4C5C",
".  c #E04C5D",
"X  c #E04D5D",
"o  c #E04D5E",
"O  c #E04E5E",
"+  c #E04E5F",
"@  c #E04F5F",
"#  c #E0505F",
"$  c #E05060",
"%  c #E05262",
"&  c #E15362",
"*  c #E15363",
"=  c #E15463",
"-  c #E15564",
";  c #E15565",
":  c #E15767",
">  c #E25867",
",  c #E25A69",
"<  c #E25B6A",
"1  c #E36170",
"2  c #E46573",
"3  c #E46674",
"4  c #E56976",
"5  c #E56A77",
"6  c #E56A78",
"7  c #E56B78",
"8  c #E56B79",
"9  c #E56C79",
"0  c #E56C7A",
"q  c #E56D7A",
"w  c #E56E7B",
"e  c #E66F7C",
"r  c #E67380",
"t  c #E77481",
"y  c #E77884",
"u  c #EA8893",
"i  c #EA8993",
"p  c #EA8B95",
"a  c #EB8B96",
"s  c #EB8E98",
"d  c #EB8E99",
"f  c #EB8F99",
"g  c #EB909A",
"h  c #EC919B",
"j  c #EC929C",
"k  c #EC939C",
"l  c #EC939D",
"z  c #EC949D",
"x  c #EC949E",
"c  c #EC959E",
"v  c #EC959F",
"b  c #EC969F",
"n  c #ED98A1",
"m  c #ED9AA3",
"M  c #EE9EA7",
"N  c #EE9FA7",
"B  c #EE9FA8",
"V  c #EEA1AA",
"C  c #F2B6BC",
"Z  c #F2B6BD",
"A  c #F3BAC0",
"S  c #F3BCC2",
"D  c #F4C1C7",
"F  c #F4C3C8",
"G  c #F5C8CD",
"H  c #F5C9CE",
"J  c #F6C9CE",
"K  c #F6CACE",
"L  c #F6CED2",
"P  c #F7D0D4",
"I  c #F8D6DA",
"U  c #F8D7DA",
"Y  c #F8D7DB",
"T  c #F8D8DB",
"R  c #F8D8DC",
"E  c #F9DCDF",
"W  c #F9DDE0",
"Q  c #F9DFE2",
"!  c #FAE3E6",
"~  c #FAE4E7",
"^  c #FBE5E8",
"/  c #FBE7E9",
"(  c #FBE8EA",
")  c #FBE8EB",
"_  c #FBE9EB",
"`  c #FCECEE",
"'  c #FCEDEF",
"]  c #FCEEF0",
"[  c #FDF2F3",
"{  c #FDF3F4",
"}  c #FDF3F5",
"|  c #FDF4F5",
" . c #FEF7F8",
".. c #FEF8F8",
"X. c #FEF8F9",
"o. c #FEF9FA",
"O. c #FEFAFA",
"+. c #FEFBFB",
"@. c #FEFBFC",
"#. c #FFFCFD",
"$. c #FFFDFD",
"%. c #FFFEFE",
"&. c gray100",
"*. c None",
/* pixels */
"*.*.*.*.*.*.*.*.*.*.*.*.*.*.*.*.*.*.*.*.*.*.*.*.*.*.@ @ @ @ @ @ @ @ @ @ @ @ *.*.*.*.*.*.*.*.*.*.*.*.*.*.*.*.*.*.*.*.*.*.*.*.*.*.",
"*.*.*.*.*.*.*.*.*.*.*.*.*.*.*.*.*.*.*.*.*.*.@ @ @ @ @ @ @ @ @ @ @ @ @ @ @ @ @ @ @ @ *.*.*.*.*.*.*.*.*.*.*.*.*.*.*.*.*.*.*.*.*.*.",
"*.*.*.*.*.*.*.*.*.*.*.*.*.*.*.*.*.*.*.*.@ @ @ @ @ @ @ @ @ @ @ @ @ @ @ @ @ @ @ @ @ @ @ @ *.*.*.*.*.*.*.*.*.*.*.*.*.*.*.*.*.*.*.*.",
"*.*.*.*.*.*.*.*.*.*.*.*.*.*.*.*.*.@ @ @ @ @ @ @ @ @ @ @ @ @ @ @ @ @ @ @ @ @ @ @ @ @ @ @ @ @ @ *.*.*.*.*.*.*.*.*.*.*.*.*.*.*.*.*.",
"*.*.*.*.*.*.*.*.*.*.*.*.*.*.*.*.@ @ @ @ @ @ @ @ @ @ @ @ @ @ @ @ @ @ @ @ @ @ @ @ @ @ @ @ @ @ @ @ *.*.*.*.*.*.*.*.*.*.*.*.*.*.*.*.",
"*.*.*.*.*.*.*.*.*.*.*.*.*.*.@ @ @ @ @ @ @ @ @ @ @ @ @ @ @ @ @ @ @ @ @ @ @ @ @ @ @ @ @ @ @ @ @ @ @ @ *.*.*.*.*.*.*.*.*.*.*.*.*.*.",
"*.*.*.*.*.*.*.*.*.*.*.*.*.@ @ @ @ @ @ @ @ @ @ @ @ @ @ @ @ @ @ @ @ @ @ @ @ @ @ @ @ @ @ @ @ @ @ @ @ @ @ *.*.*.*.*.*.*.*.*.*.*.*.*.",
"*.*.*.*.*.*.*.*.*.*.*.@ @ @ @ @ @ @ @ @ @ @ @ @ @ @ @ @ @ @ @ @ @ @ @ @ @ @ @ @ @ @ @ @ @ @ @ @ @ @ @ @ @ *.*.*.*.*.*.*.*.*.*.*.",
"*.*.*.*.*.*.*.*.*.*.@ @ @ @ @ @ @ @ @ @ @ @ @ @ @ @ @ @ @ @ @ @ @ @ @ @ @ @ @ @ @ @ @ @ @ @ @ @ @ @ @ @ @ @ *.*.*.*.*.*.*.*.*.*.",
"*.*.*.*.*.*.*.*.*.@ @ @ @ @ @ @ @ @ @ @ @ @ @ @ @ @ @ @ @ @ @ @ @ @ @ @ @ @ @ @ @ @ @ @ @ @ @ @ @ @ @ @ @ @ @ *.*.*.*.*.*.*.*.*.",
"*.*.*.*.*.*.*.*.@ @ @ @ @ @ @ @ @ @ @ @ @ @ @ @ @ @ @ @ @ @ @ @ @ @ @ @ @ @ @ @ @ @ @ @ @ @ @ @ @ @ @ @ @ @ @ @ *.*.*.*.*.*.*.*.",
"*.*.*.*.*.*.*.@ @ @ @ @ @ @ @ @ @ @ @ @ @ @ @ @ @ @ @ @ @ @ @ @ @ @ @ @ @ @ @ @ @ @ @ @ @ @ @ @ @ @ @ @ @ @ @ @ @ *.*.*.*.*.*.*.",
"*.*.*.*.*.*.*.@ @ @ @ @ @ @ @ @ @ @ @ @ @ @ @ @ @ @ @ @ @ @ @ @ @ @ @ @ @ @ @ @ @ @ @ @ @ @ @ @ @ @ @ @ @ @ @ @ @ *.*.*.*.*.*.*.",
"*.*.*.*.*.*.@ @ @ @ @ @ @ @ @ @ @ @ @ @ @ @ @ @ @ @ @ @ @ @ @ @ @ @ @ @ @ @ @ @ @ @ @ @ @ @ @ @ @ @ @ @ @ @ @ @ @ @ *.*.*.*.*.*.",
"*.*.*.*.*.@ @ @ @ @ @ @ @ @ @ @ @ @ @ @ @ @ @ @ @ @ @ @ @ @ @ @ @ @ @ @ @ @ @ @ @ @ @ @ @ @ @ @ @ @ @ @ @ @ @ @ @ @ @ *.*.*.*.*.",
"*.*.*.*.*.@ @ @ @ @ @ @ @ @ @ @ @ @ @ @ @ @ @ @ @ @ @ @ @ @ @ @ @ . @ @ @ @ @ @ @ @ @ @ @ @ @ @ @ @ @ @ @ @ @ @ @ @ @ *.*.*.*.*.",
"*.*.*.*.@ @ @ @ @ @ @ @ @ @ @ @ @ @ @ @ @ @ @ @ @ @ @ @ @ @ @ 1 N i % # @ @ @ @ @ @ @ @ @ @ @ @ @ @ @ @ @ @ @ @ @ @ @ @ *.*.*.*.",
"*.*.*.@ @ @ @ @ @ @ @ @ @ @ @ @ @ @ @ @ @ @ @ @ @ @ @ @ @ % p ! %.' w . @ @ @ @ @ @ @ @ @ @ @ @ @ @ @ @ @ @ @ @ @ @ @ @ @ *.*.*.",
"*.*.*.@ @ @ @ @ @ @ @ @ @ @ @ @ @ @ @ @ @ @ @ @ @ @ @ @ 4 S  .%.%.+.y . @ @ @ @ @ @ @ @ @ @ @ @ @ @ @ @ @ @ @ @ @ @ @ @ @ *.*.*.",
"*.*.*.@ @ @ @ @ @ @ @ @ @ @ @ @ @ @ @ @ @ @ @ @ @ @ * x ! %.%.%.%.| y . @ @ @ @ @ @ @ @ @ @ @ @ @ @ @ @ @ @ @ @ @ @ @ @ @ *.*.*.",
"*.*.@ @ @ @ @ @ @ @ @ @ @ @ @ @ @ @ @ @ @ @ @ @   e F +.%.%.%.%.%.| y @ @ @ @ @ @ @ @ @ @ @ @ @ @ @ @ @ @ @ @ @ @ @ @ @ @ @ *.*.",
"*.*.@ @ @ @ @ @ @ @ @ @ @ @ @ @ @ @ @ @ @ @ @ ; m _ %.%.%.%.%.%.%.+.y @ @ @ @ @ @ @ @ @ @ @ @ @ @ @ @ @ @ @ @ @ @ @ @ @ @ @ *.*.",
"*.@ @ @ @ @ @ @ @ @ @ @ @ @ @ @ @ @ @ @ @ @ e K %.%.%.%.%.%.%.%.%.| y . @ @ @ @ @ @ @ @ @ @ @ @ @ @ @ @ @ @ @ @ @ @ @ @ @ @ @ *.",
"*.@ @ @ @ @ @ @ @ @ @ @ @ @ @         . < V ] %.%.%.%.%.%.%.%.%.%.| y @ @ @ @ @ @ @ @ @ @ @ @ @ @ @ @ @ @ @ @ @ @ @ @ @ @ @ @ *.",
"*.@ @ @ @ @ @ @ @ @ @ @ @ @ w s g g g b P %.%.%.%.%.%.%.%.%.%.%.%.+.y @ @ @ @ @ @ @ @ @ @ @ @ @ @ @ @ @ @ @ @ @ @ @ @ @ @ @ @ *.",
"*.@ @ @ @ @ @ @ @ @ @ @ @ 1 E %.%.%.%.%.%.%.%.%.%.%.%.%.%.%.%.%.%.| y . @ @ @ ; @ @ @ @ @ @ @ @ = % @ @ @ @ @ @ @ @ @ @ @ @ @ *.",
"@ @ @ @ @ @ @ @ @ @ @ @ @ w { %.%.%.%.%.%.%.%.%.%.%.%.%.%.%.%.%.%.| y @ @ @ f Y x @ @ @ @ @ . 8 K S < @ @ @ @ @ @ @ @ @ @ @ @ @ ",
"@ @ @ @ @ @ @ @ @ @ @ @ @ e [ %.%.%.%.%.%.%.%.%.%.%.%.%.%.%.%.%.%.+.y @ @ @ C %.{ b @ $ @ @ 8 Y %.( 2 @ @ @ @ @ @ @ @ @ @ @ @ @ ",
"@ @ @ @ @ @ @ @ @ @ @ @ @ w [ %.%.%.%.%.%.%.%.%.%.%.%.%.%.%.%.%.%...y . @ @ 4 Y %.{ b $ . 8 R %.{ x @ @ @ @ @ @ @ @ @ @ @ @ @ @ ",
"@ @ @ @ @ @ @ @ @ @ @ @ @ w [ %.%.%.%.%.%.%.%.%.%.%.%.%.%.%.%.%.%.| y . @ @ @ 8 R %.| b e E %.{ b @ @ @ @ @ @ @ @ @ @ @ @ @ @ @ ",
"@ @ @ @ @ @ @ @ @ @ @ @ @ e [ %.%.%.%.%.%.%.%.%.%.%.%.%.%.%.%.%.%.+.y . @ @ @ @ 4 Y %.{ ^ %.{ x @ @ @ @ @ @ @ @ @ @ @ @ @ @ @ @ ",
"@ @ @ @ @ @ @ @ @ @ @ @ . w [ %.%.%.%.%.%.%.%.%.%.%.%.%.%.%.%.%.%.| y . @ @ @ @ @ 8 W %.%.+.b @ @ @ @ @ @ @ @ @ @ @ @ @ @ @ @ @ ",
"@ @ @ @ @ @ @ @ @ @ @ @ @ e { %.%.%.%.%.%.%.%.%.%.%.%.%.%.%.%.%.%.+.y @ @ @ @ @ @ 4 E %.%.+.b @ @ @ @ @ @ @ @ @ @ @ @ @ @ @ @ @ ",
"@ @ @ @ @ @ @ @ @ @ @ @ @ e [ %.%.%.%.%.%.%.%.%.%.%.%.%.%.%.%.%.%.| y . @ @ @ . w T %.[ ^ %.{ b @ @ @ @ @ @ @ @ @ @ @ @ @ @ @ @ ",
"@ @ @ @ @ @ @ @ @ @ @ @ . w [ %.%.%.%.%.%.%.%.%.%.%.%.%.%.%.%.%.%.| y @ @ @ . 4 T %.{ h w Y %.| b @ @ @ @ @ @ @ @ @ @ @ @ @ @ @ ",
"@ @ @ @ @ @ @ @ @ @ @ @ @ w { %.%.%.%.%.%.%.%.%.%.%.%.%.%.%.%.%.%.+.y @ @ @ 8 T %.[ b @ . 8 Y %.{ x % @ @ @ @ @ @ @ @ @ @ @ @ @ ",
"@ @ @ @ @ @ @ @ @ @ @ @ . w [ %.%.%.%.%.%.%.%.%.%.%.%.%.%.%.%.%.%. .y . @ @ C %.{ b @ @ @ . 8 Y %._ 2 @ @ @ @ @ @ @ @ @ @ @ @ @ ",
"@ @ @ @ @ @ @ @ @ @ @ @ @ e [ %.%.%.%.%.%.%.%.%.%.%.%.%.%.%.%.%.%.| y . @ @ g T h @ @ @ @ @ @ 4 K S < @ @ @ @ @ @ @ @ @ @ @ @ @ ",
"*.@ @ @ @ @ @ @ @ @ @ @ @ 1 W %.%.%.%.%.%.%.%.%.%.%.%.%.%.%.%.%.%.+.y @ @ @ # ; @ @ @ @ @ @ @ @ ; ; @ @ @ @ @ @ @ @ @ @ @ @ @ *.",
"*.@ @ @ @ @ @ @ @ @ @ @ @ @ w s s s s b L %.%.%.%.%.%.%.%.%.%.%.%.| y @ @ @ @ $ @ @ @ @ @ @ @ @   $ @ @ @ @ @ @ @ @ @ @ @ @ @ *.",
"*.@ @ @ @ @ @ @ @ @ @ @ @ @ .           < N _ %.%.%.%.%.%.%.%.%.%.| y @ @ @ @ @ @ @ @ @ @ @ @ @ @ @ @ @ @ @ @ @ @ @ @ @ @ @ @ *.",
"*.@ @ @ @ @ @ @ @ @ @ @ @ @ @ @ @ % @ @ @ @ r K +.%.%.%.%.%.%.%.%.+.y @ @ @ @ @ @ @ @ @ @ @ @ @ @ @ @ @ @ @ @ @ @ @ @ @ @ @ @ *.",
"*.*.@ @ @ @ @ @ @ @ @ @ @ @ @ @ @ @ @ @ @ @ @ ; b ( %.%.%.%.%.%.%.| y . @ @ @ @ @ @ @ @ @ @ @ @ @ @ @ @ @ @ @ @ @ @ @ @ @ @ *.*.",
"*.*.@ @ @ @ @ @ @ @ @ @ @ @ @ @ @ @ @ @ @ @ @ @ @ w D +.%.%.%.%.%.| y @ @ @ @ @ @ @ @ @ @ @ @ @ @ @ @ @ @ @ @ @ @ @ @ @ @ @ *.*.",
"*.*.*.@ @ @ @ @ @ @ @ @ @ @ @ @ @ @ @ @ @ @ @ @ @ @ = h ~ %.%.%.%.+.y . @ @ @ @ @ @ @ @ @ @ @ @ @ @ @ @ @ @ @ @ @ @ @ @ @ *.*.*.",
"*.*.*.@ @ @ @ @ @ @ @ @ @ @ @ @ @ @ @ @ @ @ @ @ @ @ @ . 4 Z +.%.%.| y @ @ @ @ @ @ @ @ @ @ @ @ @ @ @ @ @ @ @ @ @ @ @ @ @ @ *.*.*.",
"*.*.*.@ @ @ @ @ @ @ @ @ @ @ @ @ @ @ @ @ @ @ @ @ @ @ @ @ @ % i W %.' w @ @ @ @ @ @ @ @ @ @ @ @ @ @ @ @ @ @ @ @ @ @ @ @ @ @ *.*.*.",
"*.*.*.*.@ @ @ @ @ @ @ @ @ @ @ @ @ @ @ @ @ @ @ @ @ @ @ @ @ @ @ 2 V i % @ @ @ @ @ @ @ @ @ @ @ @ @ @ @ @ @ @ @ @ @ @ @ @ @ *.*.*.*.",
"*.*.*.*.*.@ @ @ @ @ @ @ @ @ @ @ @ @ @ @ @ @ @ @ @ @ @ @ @ @ @ @ . @ @ @ @ @ @ @ @ @ @ @ @ @ @ @ @ @ @ @ @ @ @ @ @ @ @ *.*.*.*.*.",
"*.*.*.*.*.@ @ @ @ @ @ @ @ @ @ @ @ @ @ @ @ @ @ @ @ @ @ @ @ @ @ @ @ @ @ @ @ @ @ @ @ @ @ @ @ @ @ @ @ @ @ @ @ @ @ @ @ @ @ *.*.*.*.*.",
"*.*.*.*.*.*.@ @ @ @ @ @ @ @ @ @ @ @ @ @ @ @ @ @ @ @ @ @ @ @ @ @ @ @ @ @ @ @ @ @ @ @ @ @ @ @ @ @ @ @ @ @ @ @ @ @ @ @ *.*.*.*.*.*.",
"*.*.*.*.*.*.*.@ @ @ @ @ @ @ @ @ @ @ @ @ @ @ @ @ @ @ @ @ @ @ @ @ @ @ @ @ @ @ @ @ @ @ @ @ @ @ @ @ @ @ @ @ @ @ @ @ @ *.*.*.*.*.*.*.",
"*.*.*.*.*.*.*.@ @ @ @ @ @ @ @ @ @ @ @ @ @ @ @ @ @ @ @ @ @ @ @ @ @ @ @ @ @ @ @ @ @ @ @ @ @ @ @ @ @ @ @ @ @ @ @ @ @ *.*.*.*.*.*.*.",
"*.*.*.*.*.*.*.*.@ @ @ @ @ @ @ @ @ @ @ @ @ @ @ @ @ @ @ @ @ @ @ @ @ @ @ @ @ @ @ @ @ @ @ @ @ @ @ @ @ @ @ @ @ @ @ @ *.*.*.*.*.*.*.*.",
"*.*.*.*.*.*.*.*.*.@ @ @ @ @ @ @ @ @ @ @ @ @ @ @ @ @ @ @ @ @ @ @ @ @ @ @ @ @ @ @ @ @ @ @ @ @ @ @ @ @ @ @ @ @ @ *.*.*.*.*.*.*.*.*.",
"*.*.*.*.*.*.*.*.*.*.@ @ @ @ @ @ @ @ @ @ @ @ @ @ @ @ @ @ @ @ @ @ @ @ @ @ @ @ @ @ @ @ @ @ @ @ @ @ @ @ @ @ @ @ *.*.*.*.*.*.*.*.*.*.",
"*.*.*.*.*.*.*.*.*.*.*.@ @ @ @ @ @ @ @ @ @ @ @ @ @ @ @ @ @ @ @ @ @ @ @ @ @ @ @ @ @ @ @ @ @ @ @ @ @ @ @ @ @ *.*.*.*.*.*.*.*.*.*.*.",
"*.*.*.*.*.*.*.*.*.*.*.*.*.@ @ @ @ @ @ @ @ @ @ @ @ @ @ @ @ @ @ @ @ @ @ @ @ @ @ @ @ @ @ @ @ @ @ @ @ @ @ *.*.*.*.*.*.*.*.*.*.*.*.*.",
"*.*.*.*.*.*.*.*.*.*.*.*.*.*.@ @ @ @ @ @ @ @ @ @ @ @ @ @ @ @ @ @ @ @ @ @ @ @ @ @ @ @ @ @ @ @ @ @ @ @ *.*.*.*.*.*.*.*.*.*.*.*.*.*.",
"*.*.*.*.*.*.*.*.*.*.*.*.*.*.*.*.@ @ @ @ @ @ @ @ @ @ @ @ @ @ @ @ @ @ @ @ @ @ @ @ @ @ @ @ @ @ @ @ *.*.*.*.*.*.*.*.*.*.*.*.*.*.*.*.",
"*.*.*.*.*.*.*.*.*.*.*.*.*.*.*.*.*.@ @ @ @ @ @ @ @ @ @ @ @ @ @ @ @ @ @ @ @ @ @ @ @ @ @ @ @ @ @ *.*.*.*.*.*.*.*.*.*.*.*.*.*.*.*.*.",
"*.*.*.*.*.*.*.*.*.*.*.*.*.*.*.*.*.*.*.*.@ @ @ @ @ @ @ @ @ @ @ @ @ @ @ @ @ @ @ @ @ @ @ @ *.*.*.*.*.*.*.*.*.*.*.*.*.*.*.*.*.*.*.*.",
"*.*.*.*.*.*.*.*.*.*.*.*.*.*.*.*.*.*.*.*.*.*.@ @ @ @ @ @ @ @ @ @ @ @ @ @ @ @ @ @ @ @ *.*.*.*.*.*.*.*.*.*.*.*.*.*.*.*.*.*.*.*.*.*.",
"*.*.*.*.*.*.*.*.*.*.*.*.*.*.*.*.*.*.*.*.*.*.*.*.*.*.@ @ @ @ @ @ @ @ @ @ @ @ *.*.*.*.*.*.*.*.*.*.*.*.*.*.*.*.*.*.*.*.*.*.*.*.*.*."
};
